# Blender v2.90.1 OBJ File: ''
# www.blender.org
mtllib powbox.mtl
o 평면_평면.006
v -0.500000 -0.250000 0.400000
v -0.500000 -0.250000 -0.400000
v 0.500000 -0.250000 -0.400000
v 0.500000 -0.250000 0.400000
v 0.500000 -0.250000 0.400000
v 0.500000 0.250000 -0.400000
v 0.500000 0.250000 0.400000
v -0.500000 0.250000 0.400000
v -0.500000 0.250000 -0.400000
v -0.400000 -0.250000 -0.500000
v -0.400000 0.250000 -0.500000
v 0.400000 0.250000 -0.500000
v 0.400000 -0.250000 -0.500000
v 0.400000 -0.250000 0.500000
v 0.400000 -0.250000 0.500000
v -0.400000 0.250000 0.500000
v -0.400000 -0.250000 0.500000
v 0.400000 0.250000 0.500000
vt 0.375000 0.250000
vt 0.625000 0.250000
vt 0.625000 0.500000
vt 0.375000 0.500000
vt 0.375000 0.500000
vt 0.625000 0.750000
vt 0.375000 0.750000
vt 0.000000 0.000000
vt 0.000000 0.000000
vt 0.000000 0.000000
vt 0.000000 0.000000
vt 0.000000 0.000000
vt 0.000000 0.000000
vt 0.000000 0.000000
vt 0.000000 0.000000
vt 0.000000 0.000000
vt 0.000000 0.000000
vt 0.000000 0.000000
vt 0.000000 0.000000
vt 0.000000 0.000000
vt 0.000000 0.000000
vt 0.000000 0.000000
vt 0.000000 0.000000
vt 0.000000 0.000000
vt 0.000000 0.000000
vt 0.375000 0.000000
vt 0.625000 0.000000
vn 0.0000 -1.0000 0.0000
vn 1.0000 0.0000 0.0000
vn 0.0000 1.0000 0.0000
vn 0.0000 0.0000 -1.0000
vn 0.0000 0.0000 1.0000
vn -1.0000 0.0000 0.0000
usemtl None
s off
f 1/1/1 2/2/1 3/3/1 4/4/1 5/5/1
f 4/4/2 3/3/2 6/6/2 7/7/2
f 8/8/3 7/9/3 6/10/3 9/11/3
f 10/12/4 11/13/4 12/14/4 13/15/4
f 2/16/1 10/12/1 13/15/1 3/17/1
f 11/13/3 9/11/3 6/10/3 12/14/3
f 14/18/5 15/19/5 5/20/5 4/21/5
f 16/22/5 17/23/5 15/19/5 14/18/5 18/24/5
f 15/19/1 17/23/1 1/25/1 5/20/1
s 1
f 8/26/6 9/27/6 2/2/6 1/1/6
f 16/22/3 18/24/3 7/9/3 8/8/3
o 큐브.003_큐브.006
v 0.400000 0.300000 0.550000
v 0.200000 0.300000 0.550000
v 0.200000 -0.300000 0.550000
v 0.400000 -0.300000 0.550000
v 0.200000 -0.300000 0.450000
v 0.370062 -0.300000 0.450000
v 0.200000 0.300000 0.450000
v 0.370062 0.300000 0.450000
v 0.550000 0.300000 0.200000
v 0.550000 0.300000 0.400000
v 0.550000 -0.300000 0.400000
v 0.550000 -0.300000 0.200000
v 0.450000 -0.300000 0.370041
v 0.450000 -0.300000 0.200000
v 0.450000 0.300000 0.370041
v 0.450000 0.300000 0.200000
v -0.400000 0.300000 -0.550000
v -0.200000 0.300000 -0.550000
v -0.200000 -0.300000 -0.550000
v -0.400000 -0.300000 -0.550000
v -0.200000 -0.300000 -0.450000
v -0.370062 -0.300000 -0.450000
v -0.200000 0.300000 -0.450000
v -0.370062 0.300000 -0.450000
v -0.550000 0.300000 -0.200000
v -0.550000 0.300000 -0.400000
v -0.550000 -0.300000 -0.400000
v -0.550000 -0.300000 -0.200000
v -0.450000 -0.300000 -0.370040
v -0.450000 -0.300000 -0.200000
v -0.450000 0.300000 -0.370040
v -0.450000 0.300000 -0.200000
v -0.550000 0.300000 0.400000
v -0.550000 0.300000 0.200000
v -0.550000 -0.300000 0.200000
v -0.550000 -0.300000 0.400000
v -0.450000 -0.300000 0.200000
v -0.450000 -0.300000 0.370062
v -0.450000 0.300000 0.200000
v -0.450000 0.300000 0.370062
v -0.200000 0.300000 0.550000
v -0.400000 0.300000 0.550000
v -0.400000 -0.300000 0.550000
v -0.200000 -0.300000 0.550000
v -0.370040 -0.300000 0.450000
v -0.200000 -0.300000 0.450000
v -0.370040 0.300000 0.450000
v -0.200000 0.300000 0.450000
v 0.550000 0.300000 -0.400000
v 0.550000 0.300000 -0.200000
v 0.550000 -0.300000 -0.200000
v 0.550000 -0.300000 -0.400000
v 0.450000 -0.300000 -0.200000
v 0.450000 -0.300000 -0.370062
v 0.450000 0.300000 -0.200000
v 0.450000 0.300000 -0.370062
v 0.200000 0.300000 -0.550000
v 0.400000 0.300000 -0.550000
v 0.400000 -0.300000 -0.550000
v 0.200000 -0.300000 -0.550000
v 0.370041 -0.300000 -0.450000
v 0.200000 -0.300000 -0.450000
v 0.370041 0.300000 -0.450000
v 0.200000 0.300000 -0.450000
vt 0.375000 0.000000
vt 0.625000 0.000000
vt 0.625000 0.250000
vt 0.375000 0.250000
vt 0.625000 0.500000
vt 0.375000 0.500000
vt 0.625000 0.750000
vt 0.375000 0.750000
vt 0.625000 1.000000
vt 0.375000 1.000000
vt 0.125000 0.500000
vt 0.125000 0.750000
vt 0.875000 0.500000
vt 0.875000 0.750000
vt 0.375000 0.000000
vt 0.625000 0.000000
vt 0.625000 0.250000
vt 0.375000 0.250000
vt 0.625000 0.500000
vt 0.375000 0.500000
vt 0.625000 0.750000
vt 0.375000 0.750000
vt 0.625000 1.000000
vt 0.375000 1.000000
vt 0.125000 0.500000
vt 0.125000 0.750000
vt 0.875000 0.500000
vt 0.875000 0.750000
vt 0.375000 0.250000
vt 0.375000 0.000000
vt 0.375000 0.750000
vt 0.375000 0.500000
vt 0.000000 0.000000
vt 0.000000 0.000000
vt 0.000000 0.000000
vt 0.000000 0.000000
vt 0.000000 0.000000
vt 0.000000 0.000000
vt 0.000000 0.000000
vt 0.000000 0.000000
vt 0.375000 0.000000
vt 0.625000 0.000000
vt 0.625000 0.250000
vt 0.375000 0.250000
vt 0.625000 0.500000
vt 0.375000 0.500000
vt 0.625000 0.750000
vt 0.375000 0.750000
vt 0.625000 1.000000
vt 0.375000 1.000000
vt 0.125000 0.500000
vt 0.125000 0.750000
vt 0.875000 0.500000
vt 0.875000 0.750000
vt 0.375000 0.000000
vt 0.625000 0.000000
vt 0.625000 0.250000
vt 0.375000 0.250000
vt 0.625000 0.500000
vt 0.375000 0.500000
vt 0.625000 0.750000
vt 0.375000 0.750000
vt 0.625000 1.000000
vt 0.375000 1.000000
vt 0.125000 0.500000
vt 0.125000 0.750000
vt 0.875000 0.500000
vt 0.875000 0.750000
vt 0.375000 0.250000
vt 0.375000 0.000000
vt 0.375000 0.750000
vt 0.375000 0.500000
vt 0.000000 0.000000
vt 0.000000 0.000000
vt 0.000000 0.000000
vt 0.000000 0.000000
vt 0.000000 0.000000
vt 0.000000 0.000000
vt 0.000000 0.000000
vt 0.000000 0.000000
vt 0.375000 0.000000
vt 0.625000 0.000000
vt 0.625000 0.250000
vt 0.375000 0.250000
vt 0.625000 0.500000
vt 0.375000 0.500000
vt 0.625000 0.750000
vt 0.375000 0.750000
vt 0.625000 1.000000
vt 0.375000 1.000000
vt 0.125000 0.500000
vt 0.125000 0.750000
vt 0.875000 0.500000
vt 0.875000 0.750000
vt 0.375000 0.000000
vt 0.625000 0.000000
vt 0.625000 0.250000
vt 0.375000 0.250000
vt 0.625000 0.500000
vt 0.375000 0.500000
vt 0.625000 0.750000
vt 0.375000 0.750000
vt 0.625000 1.000000
vt 0.375000 1.000000
vt 0.125000 0.500000
vt 0.125000 0.750000
vt 0.875000 0.500000
vt 0.875000 0.750000
vt 0.375000 0.250000
vt 0.375000 0.000000
vt 0.375000 0.750000
vt 0.375000 0.500000
vt 0.000000 0.000000
vt 0.000000 0.000000
vt 0.000000 0.000000
vt 0.000000 0.000000
vt 0.000000 0.000000
vt 0.000000 0.000000
vt 0.000000 0.000000
vt 0.000000 0.000000
vt 0.375000 0.000000
vt 0.625000 0.000000
vt 0.625000 0.250000
vt 0.375000 0.250000
vt 0.625000 0.500000
vt 0.375000 0.500000
vt 0.625000 0.750000
vt 0.375000 0.750000
vt 0.625000 1.000000
vt 0.375000 1.000000
vt 0.125000 0.500000
vt 0.125000 0.750000
vt 0.875000 0.500000
vt 0.875000 0.750000
vt 0.375000 0.000000
vt 0.625000 0.000000
vt 0.625000 0.250000
vt 0.375000 0.250000
vt 0.625000 0.500000
vt 0.375000 0.500000
vt 0.625000 0.750000
vt 0.375000 0.750000
vt 0.625000 1.000000
vt 0.375000 1.000000
vt 0.125000 0.500000
vt 0.125000 0.750000
vt 0.875000 0.500000
vt 0.875000 0.750000
vt 0.375000 0.250000
vt 0.375000 0.000000
vt 0.375000 0.750000
vt 0.375000 0.500000
vt 0.000000 0.000000
vt 0.000000 0.000000
vt 0.000000 0.000000
vt 0.000000 0.000000
vt 0.000000 0.000000
vt 0.000000 0.000000
vt 0.000000 0.000000
vt 0.000000 0.000000
vn 0.0000 0.0000 1.0000
vn 0.0000 -1.0000 0.0000
vn 0.0000 0.0000 -1.0000
vn 0.0000 1.0000 0.0000
vn 0.9580 0.0000 -0.2868
vn -1.0000 0.0000 0.0000
vn 1.0000 0.0000 0.0000
vn -0.2870 0.0000 0.9579
vn 0.7071 0.0000 0.7071
vn -0.7072 0.0000 -0.7070
vn -0.9580 0.0000 0.2868
vn 0.2870 0.0000 -0.9579
vn -0.7071 0.0000 -0.7071
vn 0.7072 0.0000 0.7070
vn 0.2868 0.0000 0.9580
vn -0.9579 0.0000 -0.2870
vn -0.7071 0.0000 0.7071
vn 0.7070 0.0000 -0.7072
vn -0.2868 0.0000 -0.9580
vn 0.9579 0.0000 0.2870
vn 0.7071 0.0000 -0.7071
vn -0.7070 0.0000 0.7072
usemtl None
s 1
f 19/28/7 20/29/7 21/30/7 22/31/7
f 22/31/8 21/30/8 23/32/8 24/33/8
f 24/33/9 23/32/9 25/34/9 26/35/9
f 26/35/10 25/34/10 20/36/10 19/37/10
f 22/38/11 24/33/11 26/35/11 19/39/11
f 23/32/12 21/40/12 20/41/12 25/34/12
f 27/42/13 28/43/13 29/44/13 30/45/13
f 30/45/8 29/44/8 31/46/8 32/47/8
f 32/47/12 31/46/12 33/48/12 34/49/12
f 34/49/10 33/48/10 28/50/10 27/51/10
f 30/52/9 32/47/9 34/49/9 27/53/9
f 31/46/14 29/54/14 28/55/14 33/48/14
f 22/31/15 29/56/15 28/57/15 19/28/15
f 26/35/16 33/58/16 31/59/16 24/33/16
f 28/60/10 33/61/10 26/62/10 19/63/10
f 31/64/8 29/65/8 22/66/8 24/67/8
f 35/68/9 36/69/9 37/70/9 38/71/9
f 38/71/8 37/70/8 39/72/8 40/73/8
f 40/73/7 39/72/7 41/74/7 42/75/7
f 42/75/10 41/74/10 36/76/10 35/77/10
f 38/78/17 40/73/17 42/75/17 35/79/17
f 39/72/13 37/80/13 36/81/13 41/74/13
f 43/82/12 44/83/12 45/84/12 46/85/12
f 46/85/8 45/84/8 47/86/8 48/87/8
f 48/87/13 47/86/13 49/88/13 50/89/13
f 50/89/10 49/88/10 44/90/10 43/91/10
f 46/92/7 48/87/7 50/89/7 43/93/7
f 47/86/18 45/94/18 44/95/18 49/88/18
f 38/71/19 45/96/19 44/97/19 35/68/19
f 42/75/20 49/98/20 47/99/20 40/73/20
f 44/100/10 49/101/10 42/102/10 35/103/10
f 47/104/8 45/105/8 38/106/8 40/107/8
f 51/108/12 52/109/12 53/110/12 54/111/12
f 54/111/8 53/110/8 55/112/8 56/113/8
f 56/113/13 55/112/13 57/114/13 58/115/13
f 58/115/10 57/114/10 52/116/10 51/117/10
f 54/118/21 56/113/21 58/115/21 51/119/21
f 55/112/9 53/120/9 52/121/9 57/114/9
f 59/122/7 60/123/7 61/124/7 62/125/7
f 62/125/8 61/124/8 63/126/8 64/127/8
f 64/127/9 63/126/9 65/128/9 66/129/9
f 66/129/10 65/128/10 60/130/10 59/131/10
f 62/132/13 64/127/13 66/129/13 59/133/13
f 63/126/22 61/134/22 60/135/22 65/128/22
f 54/111/23 61/136/23 60/137/23 51/108/23
f 58/115/24 65/138/24 63/139/24 56/113/24
f 60/140/10 65/141/10 58/142/10 51/143/10
f 63/144/8 61/145/8 54/146/8 56/147/8
f 67/148/13 68/149/13 69/150/13 70/151/13
f 70/151/8 69/150/8 71/152/8 72/153/8
f 72/153/12 71/152/12 73/154/12 74/155/12
f 74/155/10 73/154/10 68/156/10 67/157/10
f 70/158/25 72/153/25 74/155/25 67/159/25
f 71/152/7 69/160/7 68/161/7 73/154/7
f 75/162/9 76/163/9 77/164/9 78/165/9
f 78/165/8 77/164/8 79/166/8 80/167/8
f 80/167/7 79/166/7 81/168/7 82/169/7
f 82/169/10 81/168/10 76/170/10 75/171/10
f 78/172/12 80/167/12 82/169/12 75/173/12
f 79/166/26 77/174/26 76/175/26 81/168/26
f 70/151/27 77/176/27 76/177/27 67/148/27
f 74/155/28 81/178/28 79/179/28 72/153/28
f 76/180/10 81/181/10 74/182/10 67/183/10
f 79/184/8 77/185/8 70/186/8 72/187/8
o 큐브_큐브.004
v 0.140000 -0.275000 -0.350000
v 0.140000 0.275000 -0.350000
v 0.240000 -0.275000 -0.350000
v 0.240000 0.275000 -0.350000
v 0.140000 -0.275000 0.350000
v 0.140000 0.275000 0.350000
v 0.240000 -0.275000 0.350000
v 0.240000 0.275000 0.350000
v 0.140000 -0.275000 0.350000
v 0.140000 0.275000 0.350000
v 0.140000 -0.275000 0.250000
v 0.140000 0.275000 0.250000
v -0.160000 -0.275000 0.350000
v -0.160000 0.275000 0.350000
v -0.160000 -0.275000 0.250000
v -0.160000 0.275000 0.250000
v -0.260000 -0.275000 0.325000
v -0.260000 0.275000 0.325000
v -0.260000 -0.275000 0.025000
v -0.260000 0.275000 0.025000
v -0.160000 -0.275000 0.090000
v -0.160000 0.275000 0.090000
v 0.140000 -0.275000 0.090000
v 0.140000 0.275000 0.090000
v 0.140000 -0.275000 -0.010000
v 0.140000 0.275000 -0.010000
v -0.160000 -0.275000 -0.010000
v -0.160000 0.275000 -0.010000
vt 0.375000 0.000000
vt 0.625000 0.000000
vt 0.625000 0.250000
vt 0.375000 0.250000
vt 0.625000 0.500000
vt 0.375000 0.500000
vt 0.625000 0.750000
vt 0.375000 0.750000
vt 0.625000 1.000000
vt 0.375000 1.000000
vt 0.125000 0.500000
vt 0.125000 0.750000
vt 0.875000 0.500000
vt 0.875000 0.750000
vt 0.375000 0.250000
vt 0.375000 0.500000
vt 0.625000 0.500000
vt 0.625000 0.250000
vt 0.625000 0.750000
vt 0.625000 0.500000
vt 0.625000 0.750000
vt 0.375000 0.750000
vt 0.375000 1.000000
vt 0.625000 1.000000
vt 0.625000 0.750000
vt 0.125000 0.500000
vt 0.125000 0.750000
vt 0.875000 0.750000
vt 0.875000 0.500000
vt 0.375000 0.750000
vt 0.375000 0.750000
vt 0.375000 0.500000
vt 0.375000 0.250000
vt 0.375000 0.500000
vt 0.625000 0.500000
vt 0.625000 0.250000
vt 0.125000 0.500000
vt 0.375000 0.000000
vt 0.125000 0.750000
vt 0.375000 1.000000
vt 0.625000 1.000000
vt 0.875000 0.750000
vt 0.875000 0.500000
vt 0.375000 0.250000
vt 0.625000 0.250000
vt 0.625000 0.000000
vt 0.375000 1.000000
vt 0.625000 1.000000
vt 0.125000 0.500000
vt 0.125000 0.750000
vt 0.875000 0.750000
vt 0.875000 0.500000
vt 0.625000 0.750000
vt 0.375000 0.750000
vt 0.375000 0.000000
vt 0.625000 0.000000
vn 0.0000 0.0000 -1.0000
vn 1.0000 0.0000 0.0000
vn 0.0000 0.0000 1.0000
vn -1.0000 0.0000 -0.0000
vn 0.0000 -1.0000 0.0000
vn 0.0000 1.0000 0.0000
vn -0.3304 0.0000 -0.9439
vn -0.2425 0.0000 0.9701
usemtl None
s off
f 83/188/29 84/189/29 86/190/29 85/191/29
f 85/191/30 86/190/30 90/192/30 89/193/30
f 89/193/31 90/192/31 88/194/31 87/195/31
f 87/195/32 88/194/32 84/196/32 83/197/32
f 85/198/33 89/193/33 87/195/33 83/199/33
f 90/192/34 86/200/34 84/201/34 88/194/34
f 93/202/29 97/203/29 98/204/29 94/205/29
f 104/206/34 110/207/34 102/208/34
f 95/209/31 91/210/31 92/211/31 96/212/31
f 93/213/33 91/214/33 95/209/33 97/203/33
f 98/204/34 96/212/34 92/215/34 94/216/34
f 103/217/33 101/218/33 109/219/33
f 97/220/30 103/221/30 104/222/30 98/223/30
f 97/224/33 95/225/33 99/226/33
f 101/218/32 99/227/32 100/228/32 102/208/32
f 97/224/33 99/226/33 101/218/33 103/221/33
f 104/222/34 102/208/34 100/229/34 98/230/34
f 107/231/29 109/219/29 110/207/29 108/232/29
f 98/230/34 100/229/34 96/233/34
f 103/217/31 105/234/31 106/235/31 104/206/31
f 107/236/33 105/237/33 103/217/33 109/219/33
f 110/207/34 104/206/34 106/238/34 108/239/34
f 102/208/35 110/240/35 109/241/35 101/218/35
f 99/242/36 95/225/36 96/233/36 100/243/36
