# Blender v2.90.1 OBJ File: ''
# www.blender.org
mtllib satellite.mtl
o light_gray_body_큐브.038
v -0.150000 0.001485 -0.425321
v -0.105931 -0.102846 -0.425686
v -0.105931 -0.104383 0.014502
v -0.150000 -0.000052 0.014866
v 0.150000 -0.000052 0.014866
v 0.105931 -0.104383 0.014502
v 0.105931 -0.102846 -0.425686
v 0.150000 0.001485 -0.425321
v 0.000000 0.149947 0.015389
v 0.105931 0.104279 0.015230
v 0.105931 0.105816 -0.424957
v 0.000000 0.151484 -0.424798
v 0.000000 -0.150051 0.014342
v 0.000000 -0.148514 -0.425845
v -0.105931 0.104279 0.015230
v -0.105931 0.105816 -0.424957
v -0.150000 0.001485 -0.425321
v -0.105931 -0.102846 -0.425686
v 0.072598 0.070914 0.094641
v 0.000000 0.102212 0.094750
v 0.000000 0.100752 0.512982
v 0.072598 0.069454 0.512873
v -0.102691 -0.000330 0.094392
v -0.072598 0.070914 0.094641
v 0.072598 -0.071573 0.094144
v 0.000000 -0.102871 0.094034
v 0.102691 -0.000330 0.094392
v -0.072598 -0.071573 0.094144
v 0.034831 -0.035544 0.512506
v 0.049089 -0.001789 0.512624
v 0.049089 -0.003122 0.894443
v 0.034831 -0.035560 0.894330
v 0.072598 -0.073033 0.512375
v 0.000000 -0.104331 0.512266
v -0.102691 -0.001789 0.512624
v -0.072598 0.069454 0.512873
v 0.102691 -0.001789 0.512624
v -0.072598 -0.073033 0.512375
v -0.106867 0.001485 -0.425321
v -0.075541 0.075649 -0.425062
v -0.075541 0.075998 -0.524947
v -0.106867 0.001833 -0.525206
v 0.105931 -0.102846 -0.425686
v 0.150000 0.001485 -0.425321
v 0.105931 0.105816 -0.424957
v 0.000000 0.151484 -0.424798
v 0.000000 -0.148514 -0.425845
v -0.105931 0.105816 -0.424957
v -0.075541 -0.072680 -0.425580
v 0.106867 0.001485 -0.425321
v 0.075541 0.075649 -0.425062
v 0.000000 0.108216 -0.424949
v 0.000000 -0.105246 -0.425694
v 0.075541 -0.072680 -0.425580
v 0.000000 0.108564 -0.524834
v 0.075541 0.075998 -0.524947
v 0.075541 0.075998 -0.524947
v 0.000000 0.108564 -0.524834
v -0.075541 -0.072331 -0.525465
v 0.075541 -0.072331 -0.525465
v 0.106867 0.001833 -0.525206
v 0.000000 -0.104897 -0.525579
v 0.000000 -0.104897 -0.525579
v -0.075541 -0.072331 -0.525465
v -0.106867 0.001833 -0.525206
v -0.075541 0.075998 -0.524947
v 0.106867 0.001833 -0.525206
v 0.075541 -0.072331 -0.525465
v -0.049089 -0.001789 0.512624
v -0.034831 0.031965 0.512742
v 0.000000 0.046981 0.512794
v 0.000000 -0.050560 0.512454
v 0.034831 0.031965 0.512742
v -0.034831 -0.035544 0.512506
v 0.000000 -0.050576 0.894278
v 0.034831 0.029315 0.894556
v 0.000000 0.044331 0.894609
v -0.034831 0.029315 0.894556
v -0.049089 -0.003122 0.894443
v -0.034831 -0.035560 0.894330
vt 0.500000 0.000000
vt 0.625000 0.000000
vt 0.625000 0.250000
vt 0.500000 0.250000
vt 0.500000 0.500000
vt 0.625000 0.500000
vt 0.625000 0.750000
vt 0.500000 0.750000
vt 0.250000 0.500000
vt 0.375000 0.500000
vt 0.375000 0.750000
vt 0.250000 0.750000
vt 0.750000 0.500000
vt 0.875000 0.500000
vt 0.875000 0.750000
vt 0.750000 0.750000
vt 0.125000 0.500000
vt 0.125000 0.750000
vt 0.500000 0.000000
vt 0.625000 0.000000
vt 0.375000 0.000000
vt 0.375000 0.250000
vt 0.421635 0.453899
vt 0.404700 0.375000
vt 0.404700 0.375000
vt 0.421635 0.453899
vt 0.500000 0.279777
vt 0.421635 0.296101
vt 0.375000 0.375000
vt 0.578365 0.453899
vt 0.595300 0.375000
vt 0.625000 0.375000
vt 0.500000 0.470223
vt 0.578365 0.296101
vt 0.534861 0.410682
vt 0.500000 0.423629
vt 0.500000 0.423629
vt 0.534861 0.410682
vt 0.578365 0.453899
vt 0.595300 0.375000
vt 0.500000 0.279777
vt 0.421635 0.296101
vt 0.500000 0.470223
vt 0.578365 0.296101
vt 0.500000 0.973336
vt 0.417872 0.957625
vt 0.417872 0.957625
vt 0.500000 0.973336
vt 0.625000 0.750000
vt 0.500000 0.750000
vt 0.375000 0.750000
vt 0.250000 0.750000
vt 0.750000 0.750000
vt 0.875000 0.750000
vt 0.375000 0.000000
vt 0.125000 0.750000
vt 0.582128 0.957625
vt 0.625000 1.000000
vt 0.500000 1.000000
vt 0.500000 0.776665
vt 0.417872 0.792375
vt 0.401589 0.875000
vt 0.375000 0.875000
vt 0.598411 0.875000
vt 0.625000 0.875000
vt 0.375000 1.000000
vt 0.582128 0.792375
vt 0.401589 0.875000
vt 0.417872 0.792375
vt 0.417872 0.792375
vt 0.401589 0.875000
vt 0.582128 0.957625
vt 0.582128 0.792375
vt 0.500000 0.776665
vt 0.598411 0.875000
vt 0.598411 0.875000
vt 0.582128 0.957625
vt 0.500000 0.973336
vt 0.417872 0.957625
vt 0.500000 0.776665
vt 0.582128 0.792375
vt 0.500000 0.326371
vt 0.465139 0.339318
vt 0.451470 0.375000
vt 0.548531 0.375000
vt 0.465139 0.410682
vt 0.534861 0.339318
vt 0.548531 0.375000
vt 0.465139 0.410682
vt 0.451470 0.375000
vt 0.465139 0.339318
vt 0.500000 0.326371
vt 0.534861 0.339318
vn -0.9212 -0.3891 -0.0014
vn 0.9212 -0.3891 -0.0014
vn 0.3959 0.9183 0.0032
vn -0.3959 -0.9183 -0.0032
vn 0.3959 -0.9183 -0.0032
vn -0.3959 0.9183 0.0032
vn 0.0000 0.0000 1.0000
vn 0.9212 0.3891 0.0014
vn -0.9212 0.3891 0.0014
vn -0.8078 0.3395 0.4818
vn -0.3472 0.8036 0.4834
vn 0.3472 -0.8070 0.4778
vn 0.8078 0.3395 0.4818
vn 0.3472 0.8036 0.4834
vn -0.3472 -0.8070 0.4778
vn -0.8078 -0.3429 0.4794
vn 0.8078 -0.3429 0.4794
vn 0.9184 -0.3956 -0.0007
vn 0.0000 0.0035 -1.0000
vn 0.0000 -0.0035 1.0000
vn -0.3959 -0.9183 -0.0000
vn 0.9184 0.3957 0.0021
vn -0.3959 0.9183 0.0064
vn -0.9184 -0.3956 -0.0007
vn 0.3959 0.9183 0.0064
vn 0.3959 -0.9183 -0.0000
vn -0.9184 0.3957 0.0021
usemtl None.003
s 1
f 1/1/1 2/2/1 3/3/1 4/4/1
f 5/5/2 6/6/2 7/7/2 8/8/2
f 9/9/3 10/10/3 11/11/3 12/12/3
f 13/13/4 3/14/4 2/15/4 14/16/4
f 6/6/5 13/13/5 14/16/5 7/7/5
f 15/17/6 9/9/6 12/12/6 16/18/6
f 2/2/7 1/1/7 17/19/7 18/20/7
f 10/10/8 5/5/8 8/8/8 11/11/8
f 16/21/9 1/1/9 4/4/9 15/22/9
f 19/23/3 20/24/3 21/25/3 22/26/3
f 23/27/10 24/28/10 15/22/10 4/4/10
f 24/28/11 20/24/11 9/29/11 15/22/11
f 25/30/12 26/31/12 13/32/12 6/6/12
f 19/23/13 27/33/13 5/5/13 10/10/13
f 20/24/14 19/23/14 10/10/14 9/29/14
f 26/31/15 28/34/15 3/3/15 13/32/15
f 28/34/16 23/27/16 4/4/16 3/3/16
f 27/33/17 25/30/17 6/6/17 5/5/17
f 29/35/18 30/36/18 31/37/18 32/38/18
f 26/31/5 25/30/5 33/39/5 34/40/5
f 24/28/9 23/27/9 35/41/9 36/42/9
f 25/30/2 27/33/2 37/43/2 33/39/2
f 28/34/4 26/31/4 34/40/4 38/44/4
f 27/33/8 19/23/8 22/26/8 37/43/8
f 20/24/6 24/28/6 36/42/6 21/25/6
f 23/27/1 28/34/1 38/44/1 35/41/1
f 39/45/9 40/46/9 41/47/9 42/48/9
f 8/8/7 7/7/7 43/49/7 44/50/7
f 12/12/7 11/11/7 45/51/7 46/52/7
f 7/7/7 14/16/7 47/53/7 43/49/7
f 14/16/7 2/15/7 18/54/7 47/53/7
f 11/11/7 8/8/7 44/50/7 45/51/7
f 1/1/7 16/21/7 48/55/7 17/19/7
f 16/18/7 12/12/7 46/52/7 48/56/7
f 39/45/19 49/57/19 18/58/19 17/59/19
f 50/60/19 51/61/19 45/51/19 44/50/19
f 51/61/19 52/62/19 46/63/19 45/51/19
f 49/57/19 53/64/19 47/65/19 18/58/19
f 52/62/19 40/46/19 48/66/19 46/63/19
f 53/64/19 54/67/19 43/49/19 47/65/19
f 40/46/19 39/45/19 17/59/19 48/66/19
f 54/67/19 50/60/19 44/50/19 43/49/19
f 55/68/7 56/69/7 57/70/7 58/71/7
f 40/46/6 52/62/6 55/68/6 41/47/6
f 52/62/3 51/61/3 56/69/3 55/68/3
f 49/57/1 39/45/1 42/48/1 59/72/1
f 50/60/2 54/67/2 60/73/2 61/74/2
f 54/67/5 53/64/5 62/75/5 60/73/5
f 53/64/4 49/57/4 59/72/4 62/75/4
f 51/61/8 50/60/8 61/74/8 56/69/8
f 63/76/19 64/77/19 65/78/19 66/79/19 58/71/19 57/70/19 67/80/19 68/81/19
f 59/72/7 42/48/7 65/78/7 64/77/7
f 61/74/7 60/73/7 68/81/7 67/80/7
f 60/73/7 62/75/7 63/76/7 68/81/7
f 62/75/7 59/72/7 64/77/7 63/76/7
f 56/69/7 61/74/7 67/80/7 57/70/7
f 42/48/7 41/47/7 66/79/7 65/78/7
f 41/47/7 55/68/7 58/71/7 66/79/7
f 69/82/20 70/83/20 36/42/20 35/41/20
f 70/83/20 71/84/20 21/25/20 36/42/20
f 29/35/20 72/85/20 34/40/20 33/39/20
f 73/86/20 30/36/20 37/43/20 22/26/20
f 71/84/20 73/86/20 22/26/20 21/25/20
f 72/85/20 74/87/20 38/44/20 34/40/20
f 74/87/20 69/82/20 35/41/20 38/44/20
f 30/36/20 29/35/20 33/39/20 37/43/20
f 75/88/20 32/38/20 31/37/20 76/89/20 77/90/20 78/91/20 79/92/20 80/93/20
f 74/87/21 72/85/21 75/88/21 80/93/21
f 30/36/22 73/86/22 76/89/22 31/37/22
f 71/84/23 70/83/23 78/91/23 77/90/23
f 69/82/24 74/87/24 80/93/24 79/92/24
f 73/86/25 71/84/25 77/90/25 76/89/25
f 72/85/26 29/35/26 32/38/26 75/88/26
f 70/83/27 69/82/27 79/92/27 78/91/27
o white_body2_큐브.040
v -0.040000 0.001141 -0.706798
v -0.028248 -0.026337 -0.706894
v -0.028248 -0.027874 -0.520037
v -0.040000 -0.000052 -0.519939
v 0.040000 -0.000052 -0.519939
v 0.028248 -0.027874 -0.520037
v 0.028248 -0.026337 -0.706894
v 0.040000 0.001141 -0.706798
v 0.000000 0.039948 -0.519800
v 0.028248 0.027770 -0.519842
v 0.028248 0.029306 -0.706700
v 0.000000 0.040797 -0.706660
v 0.000000 -0.040052 -0.520079
v 0.000000 -0.038515 -0.706937
v -0.028248 0.027770 -0.519842
v -0.028248 0.028619 -0.706702
v -0.028248 0.028619 -0.706702
v -0.040000 0.001141 -0.706798
v -0.028248 -0.026337 -0.706894
v 0.000000 -0.038515 -0.706937
v 0.028248 -0.026337 -0.706894
v 0.040000 0.001141 -0.706798
v 0.028248 0.028619 -0.706702
v 0.000000 0.040797 -0.706660
v -0.479380 -0.010000 -0.257333
v -0.479380 0.010000 -0.257333
v -0.479380 0.010000 -0.350000
v -0.479380 -0.010000 -0.350000
v 0.220000 -0.010000 -0.350000
v 0.220000 0.010000 -0.350000
v 0.479380 0.010000 -0.350000
v 0.479380 -0.010000 -0.350000
v 0.479380 0.010000 -0.257333
v 0.479380 -0.010000 -0.257333
v -0.220000 -0.010000 -0.100286
v -0.220000 0.010000 -0.100286
v 0.220000 -0.010000 -0.100286
v -0.220000 0.010000 -0.350000
v 0.000000 0.010000 -0.350000
v 0.000000 0.010000 -0.100286
v 0.220000 0.010000 -0.100286
v -0.220000 -0.010000 -0.350000
v 0.000000 -0.010000 -0.350000
v 0.000000 -0.010000 -0.100286
v -0.010000 0.261480 -0.190000
v 0.010000 0.261480 -0.190000
v 0.010000 0.261480 -0.350000
v -0.010000 0.261480 -0.350000
v -0.010000 -0.120000 -0.350000
v 0.010000 -0.120000 -0.350000
v 0.010000 -0.261480 -0.350000
v -0.010000 -0.261480 -0.350000
v 0.010000 -0.261480 -0.190000
v -0.010000 -0.261480 -0.190000
v -0.010000 0.120000 -0.100286
v 0.010000 0.120000 -0.100286
v -0.010000 -0.120000 -0.100286
v 0.010000 0.120000 -0.350000
v 0.010000 0.000000 -0.350000
v 0.010000 0.000000 -0.100286
v 0.010000 -0.120000 -0.100286
v -0.010000 0.120000 -0.350000
v -0.010000 0.000000 -0.350000
v -0.010000 0.000000 -0.100286
vt 0.500000 0.000000
vt 0.625000 0.000000
vt 0.625000 0.250000
vt 0.500000 0.250000
vt 0.500000 0.500000
vt 0.625000 0.500000
vt 0.625000 0.750000
vt 0.500000 0.750000
vt 0.250000 0.500000
vt 0.375000 0.500000
vt 0.375000 0.750000
vt 0.250000 0.750000
vt 0.750000 0.500000
vt 0.875000 0.500000
vt 0.875000 0.750000
vt 0.750000 0.750000
vt 0.125000 0.500000
vt 0.125000 0.750000
vt 0.375000 0.000000
vt 0.375000 0.250000
vt 0.375000 0.000000
vt 0.625000 0.000000
vt 0.625000 0.250000
vt 0.375000 0.250000
vt 0.375000 0.437500
vt 0.625000 0.437500
vt 0.625000 0.500000
vt 0.375000 0.500000
vt 0.625000 0.750000
vt 0.375000 0.750000
vt 0.375000 0.937500
vt 0.625000 0.937500
vt 0.625000 1.000000
vt 0.375000 1.000000
vt 0.312500 0.500000
vt 0.312500 0.750000
vt 0.812500 0.500000
vt 0.875000 0.500000
vt 0.875000 0.750000
vt 0.812500 0.750000
vt 0.687500 0.500000
vt 0.750000 0.500000
vt 0.750000 0.750000
vt 0.687500 0.750000
vt 0.187500 0.500000
vt 0.250000 0.500000
vt 0.250000 0.750000
vt 0.187500 0.750000
vt 0.375000 0.812500
vt 0.625000 0.812500
vt 0.625000 0.875000
vt 0.375000 0.875000
vt 0.375000 0.312500
vt 0.625000 0.312500
vt 0.625000 0.375000
vt 0.375000 0.375000
vt 0.125000 0.500000
vt 0.125000 0.750000
vt 0.375000 0.000000
vt 0.625000 0.000000
vt 0.625000 0.250000
vt 0.375000 0.250000
vt 0.375000 0.437500
vt 0.625000 0.437500
vt 0.625000 0.500000
vt 0.375000 0.500000
vt 0.625000 0.750000
vt 0.375000 0.750000
vt 0.375000 0.937500
vt 0.625000 0.937500
vt 0.625000 1.000000
vt 0.375000 1.000000
vt 0.312500 0.500000
vt 0.312500 0.750000
vt 0.812500 0.500000
vt 0.875000 0.500000
vt 0.875000 0.750000
vt 0.812500 0.750000
vt 0.687500 0.500000
vt 0.750000 0.500000
vt 0.750000 0.750000
vt 0.687500 0.750000
vt 0.187500 0.500000
vt 0.250000 0.500000
vt 0.250000 0.750000
vt 0.187500 0.750000
vt 0.375000 0.812500
vt 0.625000 0.812500
vt 0.625000 0.875000
vt 0.375000 0.875000
vt 0.375000 0.312500
vt 0.625000 0.312500
vt 0.625000 0.375000
vt 0.375000 0.375000
vt 0.125000 0.500000
vt 0.125000 0.750000
vn -0.9203 -0.3912 -0.0029
vn 0.9203 -0.3912 -0.0029
vn 0.3864 0.9223 0.0059
vn -0.3959 -0.9183 -0.0076
vn 0.3959 -0.9183 -0.0076
vn -0.3959 0.9183 0.0042
vn 0.9220 0.3871 0.0028
vn -0.9203 0.3912 0.0021
vn -1.0000 0.0000 0.0000
vn 0.0000 0.0000 -1.0000
vn 1.0000 0.0000 0.0000
vn -0.5179 0.0000 0.8554
vn -0.0000 -1.0000 -0.0000
vn -0.0000 1.0000 0.0000
vn 0.0000 0.0000 1.0000
vn 0.5179 0.0000 0.8554
vn 0.0000 0.5355 0.8445
vn 0.0000 -0.5355 0.8445
usemtl None.003
s 1
f 81/94/28 82/95/28 83/96/28 84/97/28
f 85/98/29 86/99/29 87/100/29 88/101/29
f 89/102/30 90/103/30 91/104/30 92/105/30
f 93/106/31 83/107/31 82/108/31 94/109/31
f 86/99/32 93/106/32 94/109/32 87/100/32
f 95/110/33 89/102/33 92/105/33 96/111/33
f 90/103/34 85/98/34 88/101/34 91/104/34
f 96/112/35 81/94/35 84/97/35 95/113/35
usemtl None.001
s off
f 105/114/36 106/115/36 107/116/36 108/117/36
f 109/118/37 110/119/37 111/120/37 112/121/37
f 112/121/38 111/120/38 113/122/38 114/123/38
f 115/124/39 116/125/39 106/126/39 105/127/39
f 109/128/40 112/121/40 114/123/40 117/129/40
f 118/130/41 107/131/41 106/132/41 116/133/41
f 110/134/41 119/135/41 120/136/41 121/137/41
f 122/138/40 123/139/40 124/140/40 115/141/40
f 117/142/42 121/143/42 120/144/42 124/145/42
f 122/146/37 118/147/37 119/148/37 123/149/37
f 114/123/43 113/122/43 121/143/43 117/142/43
f 111/120/41 110/134/41 121/137/41 113/122/41
f 123/139/40 109/128/40 117/129/40 124/140/40
f 123/149/37 119/148/37 110/119/37 109/118/37
f 108/117/37 107/116/37 118/147/37 122/146/37
f 108/150/40 122/138/40 115/141/40 105/151/40
f 119/135/41 118/130/41 116/133/41 120/136/41
f 124/145/42 120/144/42 116/125/42 115/124/42
f 125/152/41 126/153/41 127/154/41 128/155/41
f 129/156/37 130/157/37 131/158/37 132/159/37
f 132/159/40 131/158/40 133/160/40 134/161/40
f 135/162/44 136/163/44 126/164/44 125/165/44
f 129/166/36 132/159/36 134/161/36 137/167/36
f 138/168/38 127/169/38 126/170/38 136/171/38
f 130/172/38 139/173/38 140/174/38 141/175/38
f 142/176/36 143/177/36 144/178/36 135/179/36
f 137/180/42 141/181/42 140/182/42 144/183/42
f 142/184/37 138/185/37 139/186/37 143/187/37
f 134/161/45 133/160/45 141/181/45 137/180/45
f 131/158/38 130/172/38 141/175/38 133/160/38
f 143/177/36 129/166/36 137/167/36 144/178/36
f 143/187/37 139/186/37 130/157/37 129/156/37
f 128/155/37 127/154/37 138/185/37 142/184/37
f 128/188/36 142/176/36 135/179/36 125/189/36
f 139/173/38 138/168/38 136/171/38 140/174/38
f 144/183/42 140/182/42 136/163/42 135/162/42
l 81 98
l 99 82
l 87 101
l 102 88
l 91 103
l 104 92
l 94 100
l 96 97
l 104 97
l 103 104
l 102 103
l 101 102
l 100 101
l 99 100
l 98 99
l 97 98
o gray_body.001_큐브.041
v 0.048399 0.048004 -0.818197
v 0.000000 0.068869 -0.818124
v 0.000000 0.069216 -0.701635
v 0.048399 0.048351 -0.701708
v 0.000000 -0.069622 -0.702119
v 0.048399 -0.048756 -0.702047
v 0.068461 -0.000203 -0.701877
v -0.048399 0.048351 -0.701708
v -0.068461 -0.000203 -0.701877
v -0.048399 -0.048756 -0.702047
v 0.000000 -0.068513 -0.818603
v 0.048399 -0.047648 -0.818531
v -0.048399 0.048004 -0.818197
v -0.068461 0.000204 -0.818364
v 0.068461 0.000204 -0.818364
v -0.048399 -0.047648 -0.818531
vt 0.421635 0.453899
vt 0.404700 0.375000
vt 0.404700 0.375000
vt 0.421635 0.453899
vt 0.595300 0.375000
vt 0.578365 0.453899
vt 0.500000 0.470223
vt 0.421635 0.296101
vt 0.500000 0.279777
vt 0.578365 0.296101
vt 0.595300 0.375000
vt 0.578365 0.453899
vt 0.421635 0.296101
vt 0.500000 0.279777
vt 0.500000 0.470223
vt 0.578365 0.296101
vn 0.3959 0.9183 -0.0027
vn 0.0000 -0.0035 1.0000
vn 0.3959 -0.9183 -0.0087
vn -0.9232 0.3844 0.0001
vn 0.9232 -0.3842 -0.0025
vn -0.3959 -0.9183 -0.0087
vn 0.9232 0.3844 0.0001
vn -0.3959 0.9183 -0.0027
vn -0.9232 -0.3842 -0.0025
vn 0.0000 0.0035 -1.0000
usemtl None.003
s 1
f 145/190/46 146/191/46 147/192/46 148/193/46
f 149/194/47 150/195/47 151/196/47 148/193/47 147/192/47 152/197/47 153/198/47 154/199/47
f 155/200/48 156/201/48 150/195/48 149/194/48
f 157/202/49 158/203/49 153/198/49 152/197/49
f 156/201/50 159/204/50 151/196/50 150/195/50
f 160/205/51 155/200/51 149/194/51 154/199/51
f 159/204/52 145/190/52 148/193/52 151/196/52
f 146/191/53 157/202/53 152/197/53 147/192/53
f 158/203/54 160/205/54 154/199/54 153/198/54
f 157/202/55 146/191/55 145/190/55 159/204/55 156/201/55 155/200/55 160/205/55 158/203/55
